<?xml version="1.0" encoding="UTF-8" standalone="no"?>
<!-- Created with Inkscape (http://www.inkscape.org/) -->

<svg
   xmlns:dc="http://purl.org/dc/elements/1.1/"
   xmlns:cc="http://creativecommons.org/ns#"
   xmlns:rdf="http://www.w3.org/1999/02/22-rdf-syntax-ns#"
   xmlns:svg="http://www.w3.org/2000/svg"
   xmlns="http://www.w3.org/2000/svg"
   xmlns:sodipodi="http://sodipodi.sourceforge.net/DTD/sodipodi-0.dtd"
   xmlns:inkscape="http://www.inkscape.org/namespaces/inkscape"
   width="90mm"
   height="100mm"
   viewBox="0 0 90 100"
   version="1.1"
   id="svg981"
   inkscape:version="0.92.2 (5c3e80d, 2017-08-06)"
   sodipodi:docname="logo_w_name.svg"
   inkscape:export-filename="C:\Users\huszty\bitmap.png"
   inkscape:export-xdpi="199"
   inkscape:export-ydpi="199">
  <defs
     id="defs975" />
  <sodipodi:namedview
     id="base"
     pagecolor="#ffffff"
     bordercolor="#666666"
     borderopacity="1.0"
     inkscape:pageopacity="0"
     inkscape:pageshadow="2"
     inkscape:zoom="1.979899"
     inkscape:cx="113.50918"
     inkscape:cy="176.86578"
     inkscape:document-units="mm"
     inkscape:current-layer="text877"
     showgrid="false"
     inkscape:window-width="1920"
     inkscape:window-height="1017"
     inkscape:window-x="-8"
     inkscape:window-y="-8"
     inkscape:window-maximized="1"
     inkscape:measure-start="0,0"
     inkscape:measure-end="0,0" />
  <metadata
     id="metadata978">
    <rdf:RDF>
      <cc:Work
         rdf:about="">
        <dc:format>image/svg+xml</dc:format>
        <dc:type
           rdf:resource="http://purl.org/dc/dcmitype/StillImage" />
        <dc:title />
      </cc:Work>
    </rdf:RDF>
  </metadata>
  <g
     inkscape:label="Layer 1"
     inkscape:groupmode="layer"
     id="layer1"
     transform="translate(0,-197)">
    <g
       id="g5281-2-4"
       transform="translate(-389.17725,8.6697895)">
      <path
         style="opacity:1;fill:#ffffff;fill-opacity:1;fill-rule:nonzero;stroke:none;stroke-width:1.19309354;stroke-linecap:square;stroke-linejoin:miter;stroke-miterlimit:4;stroke-dasharray:none;stroke-opacity:1;paint-order:markers fill stroke"
         d="m 61.141059,312.21086 c -4.127886,0.48842 -8.894115,-0.86663 -12.537307,1.26717 -2.646466,3.07774 -0.863183,7.64992 -1.42067,11.38031 0.156872,12.51244 -0.63773,25.08001 0.310067,37.56124 0.984937,4.78572 6.826234,3.82049 10.453698,3.98043 8.590306,0.0706 18.266144,-0.25631 24.769453,-6.7179 7.881575,-7.73671 8.763801,-20.08395 6.400263,-30.30852 -2.313413,-10.24784 -12.496384,-17.24087 -22.774344,-17.09926 -1.732345,-0.0795 -3.467446,-0.0774 -5.20116,-0.0635 z m 1.398825,12.3793 c 4.78843,-0.26895 10.364861,1.19494 12.249086,6.14279 2.150305,4.34719 0.976228,9.47359 1.067368,14.14312 -0.805645,5.07064 -5.404457,8.77237 -10.499241,8.78115 -1.619244,0.19188 -3.246971,0.31677 -4.876977,0.3635 -0.218162,-9.83689 -0.123018,-19.67697 -0.145012,-29.5154 0.734925,0.0283 1.46985,0.0566 2.204776,0.0848 z"
         id="path889"
         inkscape:connector-curvature="0"
         transform="matrix(0.26458333,0,0,0.26458333,389.17725,188.33021)" />
      <path
         style="opacity:1;fill:#ffffff;fill-opacity:1;fill-rule:nonzero;stroke:none;stroke-width:1.19309354;stroke-linecap:square;stroke-linejoin:miter;stroke-miterlimit:4;stroke-dasharray:none;stroke-opacity:1;paint-order:markers fill stroke"
         d="m 126.37383,311.6683 c -3.28516,-0.39123 -6.50805,1.52082 -7.15196,4.87812 -5.60163,14.82538 -11.39912,29.62348 -16.14567,44.73871 -0.42373,4.72887 5.34254,6.13085 9.00259,5.0409 4.91865,-0.58343 5.14319,-6.37642 6.69565,-10.00443 0.31758,-3.81044 5.18245,-1.24419 7.73487,-1.9207 2.53293,0.73008 7.16659,-1.45072 8.07253,1.5337 1.59218,3.98269 2.37883,10.39166 7.84099,10.6489 3.85508,0.95543 9.44986,-1.68168 8.12265,-6.31641 -5.13909,-15.42503 -10.72729,-30.72406 -16.81648,-45.79917 -1.31946,-2.7896 -4.72051,-2.79719 -7.35517,-2.79962 z m 0.948,23.32623 c 0.74122,2.27721 1.72984,4.73414 2.29356,6.92803 -1.66963,-0.52335 -6.67291,1.2821 -5.5726,-1.28637 0.84851,-2.52821 1.71788,-5.04942 2.60232,-7.56529 0.22558,0.64121 0.45115,1.28242 0.67672,1.92363 z"
         id="path891"
         inkscape:connector-curvature="0"
         transform="matrix(0.26458333,0,0,0.26458333,389.17725,188.33021)" />
      <path
         style="opacity:1;fill:#ffffff;fill-opacity:1;fill-rule:nonzero;stroke:none;stroke-width:1.19309354;stroke-linecap:square;stroke-linejoin:miter;stroke-miterlimit:4;stroke-dasharray:none;stroke-opacity:1;paint-order:markers fill stroke"
         d="m 203.31312,311.78371 c -3.35301,-0.18144 -7.10634,2.0706 -6.32529,5.85376 0,7.19536 0,14.39073 0,21.58609 -4.7839,-8.32338 -8.87831,-17.12265 -14.4144,-24.97365 -3.02025,-2.96137 -7.90521,-2.35051 -11.69074,-1.53398 -4.74213,2.07092 -3.13484,8.00244 -3.55804,12.07141 -0.02,12.63625 -0.11498,25.33059 0.26438,37.92964 1.00856,4.41407 7.08713,4.41722 10.52482,3.1085 4.02717,-1.98312 1.89066,-7.38555 2.4676,-10.9799 0.0379,-5.74958 0.076,-11.49915 0.11373,-17.24872 5.15388,8.8862 9.70461,18.20115 15.48276,26.68322 3.16934,2.91867 8.55555,2.76108 12.10506,0.66094 2.94141,-3.20326 1.48561,-8.09817 1.99304,-12.04782 0.0276,-12.40132 0.23679,-24.85917 -0.0786,-37.2251 -0.39566,-3.27222 -4.17267,-3.92374 -6.88437,-3.88439 z"
         id="path893"
         inkscape:connector-curvature="0"
         transform="matrix(0.26458333,0,0,0.26458333,389.17725,188.33021)" />
      <path
         style="opacity:1;fill:#ffffff;fill-opacity:1;fill-rule:nonzero;stroke:none;stroke-width:1.19309354;stroke-linecap:square;stroke-linejoin:miter;stroke-miterlimit:4;stroke-dasharray:none;stroke-opacity:1;paint-order:markers fill stroke"
         d="m 239.90748,312.15364 c -3.53881,-0.32723 -8.04922,1.39486 -7.73793,5.6387 -0.62795,14.87141 -0.20147,29.7685 -0.33145,44.64993 0.62832,4.92967 6.81049,4.48135 10.4269,3.61124 4.51955,-1.52359 2.47948,-7.148 2.92802,-10.72966 0.002,-5.1356 -0.004,-10.2712 0.003,-15.4068 3.43028,8.07792 5.85926,16.65671 10.12323,24.3433 2.91275,3.6789 10.3019,3.28466 12.00345,-1.47281 3.59309,-7.86006 6.64454,-15.95572 9.96737,-23.93194 0.19787,8.15471 -0.38011,16.42049 0.29548,24.50383 1.42541,4.15663 7.52835,3.83664 10.77715,2.06321 3.5167,-2.3006 1.51894,-7.26306 2.0797,-10.79116 -0.14586,-12.76965 0.64226,-25.60049 -0.36167,-38.33562 -1.36814,-5.00655 -7.51487,-4.28408 -11.52797,-3.9834 -5.33025,0.41409 -6.25291,6.53852 -8.30351,10.36453 -3.1297,7.05745 -6.01138,14.22128 -9.10683,21.2935 -4.11139,-9.70783 -7.46469,-19.79767 -12.35463,-29.1435 -2.05542,-2.83171 -5.75389,-2.74913 -8.88027,-2.67335 z"
         id="path895"
         inkscape:connector-curvature="0"
         transform="matrix(0.26458333,0,0,0.26458333,389.17725,188.33021)" />
      <g
         id="g909"
         transform="translate(0,-12.700002)">
        <path
           sodipodi:nodetypes="ccccccccccccccccccccccccccccccccccccccccccccccccc"
           inkscape:connector-curvature="0"
           id="path2817"
           d="m 434.24509,206.34778 c -1.72756,-0.0914 -3.46827,0.66566 -4.51874,2.05118 -2.08155,2.51404 -1.29278,6.7123 1.63962,8.2125 -0.0284,3.14168 -0.0571,6.28336 -0.086,9.42504 -3.71719,1.7395 -7.35267,3.64208 -11.13074,5.247 -1.87561,-1.44596 -3.73515,-2.9132 -5.57537,-4.404 -0.52379,-0.6146 -1.8007,-0.97586 -1.42678,-1.94888 0.69915,-3.74415 -3.44701,-7.23579 -7.02246,-5.93208 -3.18699,0.91974 -4.86975,4.95157 -3.19582,7.83599 1.15549,2.60686 4.44664,3.47204 6.97964,2.5303 2.44266,1.82556 4.86323,3.8674 7.28638,5.77521 -0.90127,4.04767 -1.86293,8.09515 -2.88318,12.12514 -1.94433,0.51015 -3.90728,0.94552 -5.86718,1.39095 -1.06185,0.008 -2.4256,1.03926 -3.2766,0.33284 -1.81798,-2.33896 -5.56044,-2.50616 -7.69757,-0.52379 -2.62801,2.14036 -2.44981,6.67251 0.38647,8.55171 2.82929,2.37413 7.62316,0.59021 8.5244,-2.89462 2.90173,-0.81559 6.03782,-1.44713 9.06109,-2.05709 2.67201,3.16797 5.19951,6.44404 7.79576,9.68749 -1.31566,2.71645 -2.63132,5.43291 -3.94698,8.14937 -2.45267,-0.022 -4.8444,1.72944 -5.51092,4.10015 -1.15455,3.61648 2.37017,7.56168 6.08195,6.94864 3.90874,-0.39171 6.04401,-5.5394 3.73694,-8.64473 1.10519,-2.85177 2.6745,-5.64778 3.9562,-8.47272 4.17398,0.005 8.34796,0.01 12.52194,0.0144 1.09182,2.28156 2.18363,4.56312 3.2755,6.84466 0.58862,0.84315 0.75295,1.57384 -2.7e-4,2.33086 -1.81362,3.20317 0.43524,7.8829 4.20499,8.11062 2.72076,0.38573 5.38521,-1.57615 5.94759,-4.23894 0.93669,-3.25012 -1.85481,-6.61059 -5.11413,-6.81022 -1.36739,-2.72109 -2.63823,-5.56783 -3.99717,-8.32064 2.62045,-3.24561 5.16781,-6.5525 7.89136,-9.71333 2.94476,0.64379 5.87891,1.33482 8.81711,2.00763 0.40845,3.07282 3.83995,5.13644 6.7674,4.29062 3.50654,-0.79357 5.3244,-5.3987 3.2283,-8.34537 -1.85015,-2.92947 -6.53693,-3.28933 -8.75584,-0.5869 -3.02266,-0.6935 -6.04904,-1.37112 -9.06626,-2.08809 -0.96045,-4.04605 -1.86382,-8.10536 -2.78942,-12.15947 2.17646,-1.73484 4.35293,-3.46966 6.52949,-5.20438 0.49136,-0.83684 1.14423,-0.10053 1.81884,-0.029 2.88312,0.80377 6.21355,-1.12904 6.70834,-4.13117 0.74127,-3.09055 -1.60672,-6.48913 -4.81993,-6.6884 -3.45373,-0.43532 -6.67692,2.9892 -5.96642,6.41156 -2.31276,1.99624 -4.83108,3.93641 -7.31775,5.80843 -3.68499,-1.69254 -7.38695,-3.53084 -11.06983,-5.30347 -0.0231,-3.09308 -0.0462,-6.18616 -0.0694,-9.27924 1.74969,-0.68135 3.02879,-2.36672 3.13048,-4.25297 0.5678,-3.05897 -2.07731,-6.21325 -5.18499,-6.15282 z"
           style="opacity:1;fill:#fffff8;fill-opacity:1;fill-rule:nonzero;stroke:none;stroke-width:0;stroke-linecap:round;stroke-linejoin:bevel;stroke-miterlimit:4;stroke-dasharray:none;stroke-opacity:1;paint-order:markers fill stroke" />
        <path
           sodipodi:type="star"
           style="opacity:1;fill:#f0f0f0;fill-opacity:1;fill-rule:nonzero;stroke:#000095;stroke-width:3.55900002;stroke-linecap:round;stroke-linejoin:bevel;stroke-miterlimit:4;stroke-dasharray:none;stroke-opacity:1;paint-order:markers fill stroke"
           id="path1023-7-7-1-2-5-91"
           sodipodi:sides="7"
           sodipodi:cx="184.41597"
           sodipodi:cy="22.514194"
           sodipodi:r1="16.999952"
           sodipodi:r2="10.39456"
           sodipodi:arg1="0.68979999"
           sodipodi:arg2="1.138599"
           inkscape:flatsided="true"
           inkscape:rounded="0"
           inkscape:randomized="0"
           d="m 197.52928,33.332674 -13.39552,6.17913 -13.18301,-6.620416 -3.04343,-14.434655 9.38793,-11.3793032 14.74997,0.2448951 9.00499,11.6846831 z"
           inkscape:transform-center-x="0.96627024"
           inkscape:transform-center-y="-2.9550015"
           transform="rotate(24.832614,-196.93342,700.35453)"
           inkscape:export-filename="C:\Users\huszty\g967-7-0-3.png"
           inkscape:export-xdpi="199"
           inkscape:export-ydpi="199" />
        <g
           id="g967-9-3-4-4-7"
           style="fill:#000000;fill-opacity:0.05527637;fill-rule:nonzero;stroke:#000095;stroke-width:2;stroke-miterlimit:4;stroke-dasharray:none;stroke-opacity:1;paint-order:markers fill stroke"
           transform="translate(273.36098,57.032225)"
           inkscape:export-filename="C:\Users\huszty\g967-7-0-3.png"
           inkscape:export-xdpi="199"
           inkscape:export-ydpi="199">
          <path
             inkscape:connector-curvature="0"
             id="path1027-1-7-7-6-5-2"
             d="m 160.49188,157.95867 -0.005,13.35226"
             style="fill:#000000;fill-opacity:0.05527637;fill-rule:nonzero;stroke:#000095;stroke-width:2;stroke-linecap:butt;stroke-linejoin:miter;stroke-miterlimit:4;stroke-dasharray:none;stroke-opacity:1;paint-order:markers fill stroke"
             sodipodi:nodetypes="cc" />
          <circle
             r="3.1307073"
             cy="154.77435"
             cx="160.68088"
             id="path1029-15-98-1-6-5-3"
             style="opacity:1;fill:#f0f0f0;fill-opacity:1;fill-rule:nonzero;stroke:#000095;stroke-width:2;stroke-linecap:round;stroke-linejoin:bevel;stroke-miterlimit:4;stroke-dasharray:none;stroke-opacity:1;paint-order:markers fill stroke" />
        </g>
        <g
           transform="rotate(-51.420001,356.37435,-67.044072)"
           id="g967-7-9-8-9-3-4"
           style="fill:#000000;fill-opacity:1;fill-rule:nonzero;stroke:#000095;stroke-width:2;stroke-miterlimit:4;stroke-dasharray:none;stroke-opacity:1;paint-order:markers fill stroke"
           inkscape:export-filename="C:\Users\huszty\g967-7-0-3.png"
           inkscape:export-xdpi="199"
           inkscape:export-ydpi="199">
          <path
             inkscape:connector-curvature="0"
             id="path1027-1-3-9-7-3-8-2"
             d="m 160.49188,157.95867 -0.004,13.35225"
             style="fill:#000000;fill-opacity:1;fill-rule:nonzero;stroke:#000095;stroke-width:2;stroke-linecap:butt;stroke-linejoin:miter;stroke-miterlimit:4;stroke-dasharray:none;stroke-opacity:1;paint-order:markers fill stroke"
             sodipodi:nodetypes="cc" />
          <circle
             r="3.1307073"
             cy="154.77435"
             cx="160.68088"
             id="path1029-15-9-6-6-5-3-2"
             style="opacity:1;fill:#000000;fill-opacity:1;fill-rule:nonzero;stroke:#000095;stroke-width:2;stroke-linecap:round;stroke-linejoin:bevel;stroke-miterlimit:4;stroke-dasharray:none;stroke-opacity:1;paint-order:markers fill stroke" />
        </g>
        <g
           transform="rotate(-102.84,319.89807,107.79695)"
           id="g967-7-0-46-1-9-2-3"
           style="fill:#000000;fill-opacity:0.58823529;fill-rule:nonzero;stroke:#000095;stroke-width:2;stroke-miterlimit:4;stroke-dasharray:none;stroke-opacity:1;paint-order:markers fill stroke"
           inkscape:export-filename="C:\Users\huszty\g967-7-0-3.png"
           inkscape:export-xdpi="199"
           inkscape:export-ydpi="199">
          <path
             inkscape:connector-curvature="0"
             id="path1027-1-3-5-06-7-5-3-3"
             d="m 160.49188,157.95867 -0.003,13.35225"
             style="fill:#000000;fill-opacity:0.58823529;fill-rule:nonzero;stroke:#000095;stroke-width:2;stroke-linecap:butt;stroke-linejoin:miter;stroke-miterlimit:4;stroke-dasharray:none;stroke-opacity:1;paint-order:markers fill stroke"
             sodipodi:nodetypes="cc" />
          <circle
             r="3.1307073"
             cy="154.77435"
             cx="160.68088"
             id="path1029-15-9-8-2-9-4-7-22"
             style="opacity:1;fill:#5a5a5a;fill-opacity:1;fill-rule:nonzero;stroke:#000095;stroke-width:2;stroke-linecap:round;stroke-linejoin:bevel;stroke-miterlimit:4;stroke-dasharray:none;stroke-opacity:1;paint-order:markers fill stroke" />
        </g>
        <g
           transform="rotate(-154.26,303.66717,185.59936)"
           id="g967-7-0-6-4-8-1-9-3"
           style="fill:#000000;fill-opacity:0.47058824;fill-rule:nonzero;stroke:#000095;stroke-width:2;stroke-miterlimit:4;stroke-dasharray:none;stroke-opacity:1;paint-order:markers fill stroke"
           inkscape:export-filename="C:\Users\huszty\g967-7-0-3.png"
           inkscape:export-xdpi="199"
           inkscape:export-ydpi="199">
          <path
             inkscape:connector-curvature="0"
             id="path1027-1-3-5-0-2-3-2-4-7"
             d="m 160.49188,157.95867 -0.003,13.35225"
             style="fill:#000000;fill-opacity:0.47058824;fill-rule:nonzero;stroke:#000095;stroke-width:2;stroke-linecap:butt;stroke-linejoin:miter;stroke-miterlimit:4;stroke-dasharray:none;stroke-opacity:1;paint-order:markers fill stroke"
             sodipodi:nodetypes="cc" />
          <circle
             r="3.1307073"
             cy="154.77435"
             cx="160.68088"
             id="path1029-15-9-8-8-6-1-3-4-0"
             style="opacity:1;fill:#787878;fill-opacity:1;fill-rule:nonzero;stroke:#000095;stroke-width:2;stroke-linecap:round;stroke-linejoin:bevel;stroke-miterlimit:4;stroke-dasharray:none;stroke-opacity:1;paint-order:markers fill stroke" />
        </g>
        <g
           transform="rotate(154.32,290.65372,247.97896)"
           id="g967-7-0-4-9-5-1-6-6"
           style="fill:#000000;fill-opacity:0.35294118;fill-rule:nonzero;stroke:#000095;stroke-width:2;stroke-miterlimit:4;stroke-dasharray:none;stroke-opacity:1;paint-order:markers fill stroke"
           inkscape:export-filename="C:\Users\huszty\g967-7-0-3.png"
           inkscape:export-xdpi="199"
           inkscape:export-ydpi="199">
          <path
             inkscape:connector-curvature="0"
             id="path1027-1-3-5-8-9-0-4-6-7"
             d="m 160.49188,157.95867 -0.002,13.35224"
             style="fill:#000000;fill-opacity:0.35294118;fill-rule:nonzero;stroke:#000095;stroke-width:2;stroke-linecap:butt;stroke-linejoin:miter;stroke-miterlimit:4;stroke-dasharray:none;stroke-opacity:1;paint-order:markers fill stroke"
             sodipodi:nodetypes="cc" />
          <circle
             r="3.1307073"
             cy="154.77435"
             cx="160.68088"
             id="path1029-15-9-8-81-7-0-0-3-6"
             style="opacity:1;fill:#969696;fill-opacity:1;fill-rule:nonzero;stroke:#000095;stroke-width:2;stroke-linecap:round;stroke-linejoin:bevel;stroke-miterlimit:4;stroke-dasharray:none;stroke-opacity:1;paint-order:markers fill stroke" />
        </g>
        <g
           transform="rotate(102.9,274.43154,325.73624)"
           id="g967-7-0-2-8-7-7-6-0"
           style="fill:#000000;fill-opacity:0.23529412;fill-rule:nonzero;stroke:#000095;stroke-width:2;stroke-miterlimit:4;stroke-dasharray:none;stroke-opacity:1;paint-order:markers fill stroke"
           inkscape:export-filename="C:\Users\huszty\g967-7-0-3.png"
           inkscape:export-xdpi="199"
           inkscape:export-ydpi="199">
          <path
             inkscape:connector-curvature="0"
             id="path1027-1-3-5-9-0-3-2-5-1"
             d="m 160.49188,157.95867 -0.002,13.35227"
             style="fill:#000000;fill-opacity:0.23529412;fill-rule:nonzero;stroke:#000095;stroke-width:2;stroke-linecap:butt;stroke-linejoin:miter;stroke-miterlimit:4;stroke-dasharray:none;stroke-opacity:1;paint-order:markers fill stroke"
             sodipodi:nodetypes="cc" />
          <circle
             r="3.1307073"
             cy="154.77435"
             cx="160.68088"
             id="path1029-15-9-8-9-0-0-8-5-0"
             style="opacity:1;fill:#b4b4b4;fill-opacity:1;fill-rule:nonzero;stroke:#000095;stroke-width:2;stroke-linecap:round;stroke-linejoin:bevel;stroke-miterlimit:4;stroke-dasharray:none;stroke-opacity:1;paint-order:markers fill stroke" />
        </g>
        <g
           transform="rotate(51.479999,238.01008,500.30205)"
           id="g967-7-0-3-3-6-7-1-1"
           style="fill:#000000;fill-opacity:0.11764706;fill-rule:nonzero;stroke:#000095;stroke-width:2;stroke-miterlimit:4;stroke-dasharray:none;stroke-opacity:1;paint-order:markers fill stroke"
           inkscape:export-filename="C:\Users\huszty\g967-7-0-3.png"
           inkscape:export-xdpi="199"
           inkscape:export-ydpi="199">
          <path
             inkscape:connector-curvature="0"
             id="path1027-1-3-5-84-4-1-1-5-8"
             d="m 160.49188,157.95867 -0.001,13.35226"
             style="fill:#000000;fill-opacity:0.11764706;fill-rule:nonzero;stroke:#000095;stroke-width:2;stroke-linecap:butt;stroke-linejoin:miter;stroke-miterlimit:4;stroke-dasharray:none;stroke-opacity:1;paint-order:markers fill stroke"
             sodipodi:nodetypes="cc" />
          <circle
             r="3.1307073"
             cy="154.77435"
             cx="160.68088"
             id="path1029-15-9-8-4-4-2-7-9-7"
             style="opacity:1;fill:#d2d2d2;fill-opacity:1;fill-rule:nonzero;stroke:#000095;stroke-width:2;stroke-linecap:round;stroke-linejoin:bevel;stroke-miterlimit:4;stroke-dasharray:none;stroke-opacity:1;paint-order:markers fill stroke" />
        </g>
      </g>
      <g
         aria-label="DANM"
         style="font-style:normal;font-variant:normal;font-weight:normal;font-stretch:normal;font-size:10.58333302px;line-height:1.25;font-family:'Nokia Pure Headline';-inkscape-font-specification:'Nokia Pure Headline';letter-spacing:0px;word-spacing:0px;fill:#000095;fill-opacity:1;stroke:none;stroke-width:0.26458332"
         id="text877">
        <path
           d="m 412.1267,277.89184 q 0,1.62057 -0.41479,2.836 -0.41479,1.20579 -1.21543,2.00643 -0.79099,0.79099 -1.94854,1.18649 -1.15756,0.39549 -2.75884,0.39549 h -2.64307 q -0.22187,0 -0.42444,-0.14469 -0.19293,-0.15434 -0.19293,-0.53055 v -11.13179 q 0,-0.3762 0.19293,-0.5209 0.20257,-0.15434 0.42444,-0.15434 h 2.82635 q 1.62058,0 2.73954,0.42444 1.11897,0.41479 1.87138,1.20578 0.76205,0.78135 1.1479,1.90032 0.3955,1.11896 0.3955,2.52732 z m -1.74597,0.0675 q 0,-1.01285 -0.25081,-1.88102 -0.2508,-0.87781 -0.79099,-1.51446 -0.53054,-0.63666 -1.35048,-0.99357 -0.81993,-0.35691 -2.11253,-0.35691 h -1.6881 v 9.71379 h 1.70739 q 1.19614,0 2.01607,-0.29903 0.81993,-0.29904 1.36977,-0.9164 0.54984,-0.61736 0.81993,-1.5434 0.27975,-0.93569 0.27975,-2.209 z"
           style="font-style:normal;font-variant:normal;font-weight:normal;font-stretch:normal;font-size:19.75555611px;font-family:Calibri;-inkscape-font-specification:Calibri;letter-spacing:4.29683399px;fill:#000095;fill-opacity:1;stroke-width:0.26458332"
           id="path851" />
        <path
           d="m 428.05693,283.72783 q 0.0772,0.21222 0.0772,0.34727 0.01,0.1254 -0.0675,0.19292 -0.0772,0.0675 -0.26045,0.0868 -0.17363,0.0193 -0.47267,0.0193 -0.29903,0 -0.48231,-0.0193 -0.17363,-0.01 -0.27009,-0.0386 -0.0868,-0.0386 -0.13505,-0.0965 -0.0386,-0.0579 -0.0772,-0.14469 l -1.07074,-3.03858 h -5.18969 l -1.0225,2.99999 q -0.0289,0.0868 -0.0772,0.15434 -0.0482,0.0579 -0.1447,0.10611 -0.0868,0.0386 -0.26045,0.0579 -0.16398,0.0193 -0.43408,0.0193 -0.27974,0 -0.46302,-0.0289 -0.17363,-0.0193 -0.2508,-0.0868 -0.0675,-0.0675 -0.0675,-0.19293 0.01,-0.13505 0.0868,-0.34726 l 4.18648,-11.59482 q 0.0386,-0.10611 0.0965,-0.17363 0.0675,-0.0675 0.18328,-0.10611 0.1254,-0.0386 0.30868,-0.0482 0.19293,-0.0193 0.48231,-0.0193 0.30869,0 0.51126,0.0193 0.20257,0.01 0.32797,0.0482 0.1254,0.0386 0.19293,0.11575 0.0675,0.0675 0.1061,0.17364 z m -5.37297,-10.23469 h -0.01 l -2.15112,6.22184 h 4.34082 z"
           style="font-style:normal;font-variant:normal;font-weight:normal;font-stretch:normal;font-size:19.75555611px;font-family:Calibri;-inkscape-font-specification:Calibri;letter-spacing:4.29683399px;fill:#000095;fill-opacity:1;stroke-width:0.26458332"
           id="path853" />
        <path
           d="m 443.86177,283.63137 q 0,0.19292 -0.0675,0.32797 -0.0579,0.13505 -0.16398,0.22187 -0.0965,0.0868 -0.22187,0.1254 -0.1254,0.0386 -0.2508,0.0386 h -0.53055 q -0.2508,0 -0.44372,-0.0482 -0.18328,-0.0579 -0.35692,-0.19292 -0.16398,-0.1447 -0.33762,-0.38585 -0.16398,-0.24116 -0.36655,-0.61737 l -3.93568,-7.09965 q -0.30868,-0.54984 -0.62701,-1.1479 -0.30868,-0.60772 -0.57877,-1.17685 h -0.0193 q 0.0193,0.69453 0.0289,1.418 0.01,0.72347 0.01,1.4373 v 7.53373 q 0,0.0675 -0.0386,0.13505 -0.0386,0.0579 -0.13504,0.0965 -0.0868,0.0289 -0.24116,0.0482 -0.1447,0.0289 -0.37621,0.0289 -0.23151,0 -0.38585,-0.0289 -0.14469,-0.0193 -0.23151,-0.0482 -0.0868,-0.0386 -0.1254,-0.0965 -0.0386,-0.0675 -0.0386,-0.13505 v -11.51764 q 0,-0.38585 0.21221,-0.54984 0.21222,-0.16399 0.46303,-0.16399 h 0.79099 q 0.27974,0 0.46302,0.0482 0.19293,0.0482 0.33762,0.16399 0.15434,0.10611 0.28939,0.30868 0.14469,0.19293 0.30868,0.49196 l 3.02893,5.47908 q 0.27974,0.50161 0.54019,0.98392 0.26045,0.47267 0.5016,0.93569 0.24116,0.46302 0.47267,0.91639 0.24116,0.44373 0.47267,0.89711 h 0.01 q -0.0193,-0.76206 -0.0289,-1.58199 0,-0.82958 0,-1.59164 v -6.77167 q 0,-0.0675 0.0386,-0.12541 0.0386,-0.0579 0.1254,-0.0965 0.0965,-0.0482 0.24116,-0.0675 0.15434,-0.0193 0.39549,-0.0193 0.21222,0 0.36656,0.0193 0.15434,0.0193 0.24116,0.0675 0.0868,0.0386 0.1254,0.0965 0.0386,0.0579 0.0386,0.12541 z"
           style="font-style:normal;font-variant:normal;font-weight:normal;font-stretch:normal;font-size:19.75555611px;font-family:Calibri;-inkscape-font-specification:Calibri;letter-spacing:4.29683399px;fill:#000095;fill-opacity:1;stroke-width:0.26458332"
           id="path855" />
        <path
           d="m 465.06851,284.06545 q 0,0.0772 -0.0386,0.13505 -0.0386,0.0579 -0.13504,0.0965 -0.0965,0.0289 -0.25081,0.0482 -0.14469,0.0289 -0.38585,0.0289 -0.22186,0 -0.38585,-0.0289 -0.15434,-0.0193 -0.2508,-0.0482 -0.0868,-0.0386 -0.1254,-0.0965 -0.0386,-0.0579 -0.0386,-0.13505 v -10.87134 h -0.0193 l -4.44693,10.91957 q -0.0289,0.0675 -0.0868,0.11576 -0.0482,0.0482 -0.15434,0.0868 -0.0965,0.0289 -0.24115,0.0386 -0.13505,0.0193 -0.32798,0.0193 -0.20257,0 -0.34726,-0.0193 -0.1447,-0.0193 -0.24116,-0.0482 -0.0965,-0.0386 -0.15434,-0.0868 -0.0482,-0.0482 -0.0675,-0.10611 l -4.25401,-10.91957 h -0.01 v 10.87134 q 0,0.0772 -0.0386,0.13505 -0.0386,0.0579 -0.13505,0.0965 -0.0965,0.0289 -0.2508,0.0482 -0.15434,0.0289 -0.3955,0.0289 -0.23151,0 -0.38585,-0.0289 -0.15434,-0.0193 -0.2508,-0.0482 -0.0868,-0.0386 -0.1254,-0.0965 -0.0289,-0.0579 -0.0289,-0.13505 v -11.47906 q 0,-0.40514 0.21222,-0.57877 0.21222,-0.17364 0.47266,-0.17364 h 1.00322 q 0.30868,0 0.54019,0.0579 0.23151,0.0579 0.40514,0.18328 0.17363,0.1254 0.28939,0.31833 0.11575,0.19292 0.20257,0.45337 l 3.61735,9.03855 h 0.0482 l 3.76205,-9.00961 q 0.10611,-0.28939 0.23151,-0.49196 0.1254,-0.20257 0.27009,-0.31833 0.15434,-0.1254 0.33762,-0.17363 0.18328,-0.0579 0.42444,-0.0579 h 1.05144 q 0.14469,0 0.2701,0.0482 0.13504,0.0386 0.22186,0.13505 0.0965,0.0868 0.15434,0.23151 0.0579,0.13505 0.0579,0.33762 z"
           style="font-style:normal;font-variant:normal;font-weight:normal;font-stretch:normal;font-size:19.75555611px;font-family:Calibri;-inkscape-font-specification:Calibri;letter-spacing:4.29683399px;fill:#000095;fill-opacity:1;stroke-width:0.26458332"
           id="path857" />
      </g>
    </g>
  </g>
</svg>
