<?xml version="1.0" encoding="UTF-8" standalone="no"?>
<!-- Created with Inkscape (http://www.inkscape.org/) -->

<svg
   xmlns:dc="http://purl.org/dc/elements/1.1/"
   xmlns:cc="http://creativecommons.org/ns#"
   xmlns:rdf="http://www.w3.org/1999/02/22-rdf-syntax-ns#"
   xmlns:svg="http://www.w3.org/2000/svg"
   xmlns="http://www.w3.org/2000/svg"
   xmlns:sodipodi="http://sodipodi.sourceforge.net/DTD/sodipodi-0.dtd"
   xmlns:inkscape="http://www.inkscape.org/namespaces/inkscape"
   width="90mm"
   height="90mm"
   viewBox="0 0 90 90"
   version="1.1"
   id="svg981"
   inkscape:version="0.92.2 (5c3e80d, 2017-08-06)"
   sodipodi:docname="logo.svg"
   inkscape:export-filename="C:\Users\huszty\bitmap.png"
   inkscape:export-xdpi="199"
   inkscape:export-ydpi="199">
  <defs
     id="defs975" />
  <sodipodi:namedview
     id="base"
     pagecolor="#ffffff"
     bordercolor="#666666"
     borderopacity="1.0"
     inkscape:pageopacity="0"
     inkscape:pageshadow="2"
     inkscape:zoom="2.8"
     inkscape:cx="143.13055"
     inkscape:cy="195.47631"
     inkscape:document-units="mm"
     inkscape:current-layer="g5281-2-4"
     showgrid="false"
     inkscape:window-width="1920"
     inkscape:window-height="1017"
     inkscape:window-x="-8"
     inkscape:window-y="-8"
     inkscape:window-maximized="1" />
  <metadata
     id="metadata978">
    <rdf:RDF>
      <cc:Work
         rdf:about="">
        <dc:format>image/svg+xml</dc:format>
        <dc:type
           rdf:resource="http://purl.org/dc/dcmitype/StillImage" />
        <dc:title></dc:title>
      </cc:Work>
    </rdf:RDF>
  </metadata>
  <g
     inkscape:label="Layer 1"
     inkscape:groupmode="layer"
     id="layer1"
     transform="translate(0,-207)">
    <g
       id="g5281-2-4"
       transform="translate(-389.17725,8.6697895)">
      <g
         id="g909">
        <path
           sodipodi:nodetypes="ccccccccccccccccccccccccccccccccccccccccccccccccc"
           inkscape:connector-curvature="0"
           id="path2817"
           d="m 434.24509,206.34778 c -1.72756,-0.0914 -3.46827,0.66566 -4.51874,2.05118 -2.08155,2.51404 -1.29278,6.7123 1.63962,8.2125 -0.0284,3.14168 -0.0571,6.28336 -0.086,9.42504 -3.71719,1.7395 -7.35267,3.64208 -11.13074,5.247 -1.87561,-1.44596 -3.73515,-2.9132 -5.57537,-4.404 -0.52379,-0.6146 -1.8007,-0.97586 -1.42678,-1.94888 0.69915,-3.74415 -3.44701,-7.23579 -7.02246,-5.93208 -3.18699,0.91974 -4.86975,4.95157 -3.19582,7.83599 1.15549,2.60686 4.44664,3.47204 6.97964,2.5303 2.44266,1.82556 4.86323,3.8674 7.28638,5.77521 -0.90127,4.04767 -1.86293,8.09515 -2.88318,12.12514 -1.94433,0.51015 -3.90728,0.94552 -5.86718,1.39095 -1.06185,0.008 -2.4256,1.03926 -3.2766,0.33284 -1.81798,-2.33896 -5.56044,-2.50616 -7.69757,-0.52379 -2.62801,2.14036 -2.44981,6.67251 0.38647,8.55171 2.82929,2.37413 7.62316,0.59021 8.5244,-2.89462 2.90173,-0.81559 6.03782,-1.44713 9.06109,-2.05709 2.67201,3.16797 5.19951,6.44404 7.79576,9.68749 -1.31566,2.71645 -2.63132,5.43291 -3.94698,8.14937 -2.45267,-0.022 -4.8444,1.72944 -5.51092,4.10015 -1.15455,3.61648 2.37017,7.56168 6.08195,6.94864 3.90874,-0.39171 6.04401,-5.5394 3.73694,-8.64473 1.10519,-2.85177 2.6745,-5.64778 3.9562,-8.47272 4.17398,0.005 8.34796,0.01 12.52194,0.0144 1.09182,2.28156 2.18363,4.56312 3.2755,6.84466 0.58862,0.84315 0.75295,1.57384 -2.7e-4,2.33086 -1.81362,3.20317 0.43524,7.8829 4.20499,8.11062 2.72076,0.38573 5.38521,-1.57615 5.94759,-4.23894 0.93669,-3.25012 -1.85481,-6.61059 -5.11413,-6.81022 -1.36739,-2.72109 -2.63823,-5.56783 -3.99717,-8.32064 2.62045,-3.24561 5.16781,-6.5525 7.89136,-9.71333 2.94476,0.64379 5.87891,1.33482 8.81711,2.00763 0.40845,3.07282 3.83995,5.13644 6.7674,4.29062 3.50654,-0.79357 5.3244,-5.3987 3.2283,-8.34537 -1.85015,-2.92947 -6.53693,-3.28933 -8.75584,-0.5869 -3.02266,-0.6935 -6.04904,-1.37112 -9.06626,-2.08809 -0.96045,-4.04605 -1.86382,-8.10536 -2.78942,-12.15947 2.17646,-1.73484 4.35293,-3.46966 6.52949,-5.20438 0.49136,-0.83684 1.14423,-0.10053 1.81884,-0.029 2.88312,0.80377 6.21355,-1.12904 6.70834,-4.13117 0.74127,-3.09055 -1.60672,-6.48913 -4.81993,-6.6884 -3.45373,-0.43532 -6.67692,2.9892 -5.96642,6.41156 -2.31276,1.99624 -4.83108,3.93641 -7.31775,5.80843 -3.68499,-1.69254 -7.38695,-3.53084 -11.06983,-5.30347 -0.0231,-3.09308 -0.0462,-6.18616 -0.0694,-9.27924 1.74969,-0.68135 3.02879,-2.36672 3.13048,-4.25297 0.5678,-3.05897 -2.07731,-6.21325 -5.18499,-6.15282 z"
           style="opacity:1;fill:#fffff8;fill-opacity:1;fill-rule:nonzero;stroke:none;stroke-width:0;stroke-linecap:round;stroke-linejoin:bevel;stroke-miterlimit:4;stroke-dasharray:none;stroke-opacity:1;paint-order:markers fill stroke" />
        <path
           sodipodi:type="star"
           style="opacity:1;fill:#f0f0f0;fill-opacity:1;fill-rule:nonzero;stroke:#000095;stroke-width:3.55900002;stroke-linecap:round;stroke-linejoin:bevel;stroke-miterlimit:4;stroke-dasharray:none;stroke-opacity:1;paint-order:markers fill stroke"
           id="path1023-7-7-1-2-5-91"
           sodipodi:sides="7"
           sodipodi:cx="184.41597"
           sodipodi:cy="22.514194"
           sodipodi:r1="16.999952"
           sodipodi:r2="10.39456"
           sodipodi:arg1="0.68979999"
           sodipodi:arg2="1.138599"
           inkscape:flatsided="true"
           inkscape:rounded="0"
           inkscape:randomized="0"
           d="m 197.52928,33.332674 -13.39552,6.17913 -13.18301,-6.620416 -3.04343,-14.434655 9.38793,-11.3793032 14.74997,0.2448951 9.00499,11.6846831 z"
           inkscape:transform-center-x="0.96627024"
           inkscape:transform-center-y="-2.9550015"
           transform="rotate(24.832614,-196.93342,700.35453)"
           inkscape:export-filename="C:\Users\huszty\g967-7-0-3.png"
           inkscape:export-xdpi="199"
           inkscape:export-ydpi="199" />
        <g
           id="g967-9-3-4-4-7"
           style="fill:#000000;fill-opacity:0.05527637;fill-rule:nonzero;stroke:#000095;stroke-width:2;stroke-miterlimit:4;stroke-dasharray:none;stroke-opacity:1;paint-order:markers fill stroke"
           transform="translate(273.36098,57.032225)"
           inkscape:export-filename="C:\Users\huszty\g967-7-0-3.png"
           inkscape:export-xdpi="199"
           inkscape:export-ydpi="199">
          <path
             inkscape:connector-curvature="0"
             id="path1027-1-7-7-6-5-2"
             d="m 160.49188,157.95867 -0.005,13.35226"
             style="fill:#000000;fill-opacity:0.05527637;fill-rule:nonzero;stroke:#000095;stroke-width:2;stroke-linecap:butt;stroke-linejoin:miter;stroke-miterlimit:4;stroke-dasharray:none;stroke-opacity:1;paint-order:markers fill stroke"
             sodipodi:nodetypes="cc" />
          <circle
             r="3.1307073"
             cy="154.77435"
             cx="160.68088"
             id="path1029-15-98-1-6-5-3"
             style="opacity:1;fill:#f0f0f0;fill-opacity:1;fill-rule:nonzero;stroke:#000095;stroke-width:2;stroke-linecap:round;stroke-linejoin:bevel;stroke-miterlimit:4;stroke-dasharray:none;stroke-opacity:1;paint-order:markers fill stroke" />
        </g>
        <g
           transform="rotate(-51.420001,356.37435,-67.044072)"
           id="g967-7-9-8-9-3-4"
           style="fill:#000000;fill-opacity:1;fill-rule:nonzero;stroke:#000095;stroke-width:2;stroke-miterlimit:4;stroke-dasharray:none;stroke-opacity:1;paint-order:markers fill stroke"
           inkscape:export-filename="C:\Users\huszty\g967-7-0-3.png"
           inkscape:export-xdpi="199"
           inkscape:export-ydpi="199">
          <path
             inkscape:connector-curvature="0"
             id="path1027-1-3-9-7-3-8-2"
             d="m 160.49188,157.95867 -0.004,13.35225"
             style="fill:#000000;fill-opacity:1;fill-rule:nonzero;stroke:#000095;stroke-width:2;stroke-linecap:butt;stroke-linejoin:miter;stroke-miterlimit:4;stroke-dasharray:none;stroke-opacity:1;paint-order:markers fill stroke"
             sodipodi:nodetypes="cc" />
          <circle
             r="3.1307073"
             cy="154.77435"
             cx="160.68088"
             id="path1029-15-9-6-6-5-3-2"
             style="opacity:1;fill:#000000;fill-opacity:1;fill-rule:nonzero;stroke:#000095;stroke-width:2;stroke-linecap:round;stroke-linejoin:bevel;stroke-miterlimit:4;stroke-dasharray:none;stroke-opacity:1;paint-order:markers fill stroke" />
        </g>
        <g
           transform="rotate(-102.84,319.89807,107.79695)"
           id="g967-7-0-46-1-9-2-3"
           style="fill:#000000;fill-opacity:0.58823529;fill-rule:nonzero;stroke:#000095;stroke-width:2;stroke-miterlimit:4;stroke-dasharray:none;stroke-opacity:1;paint-order:markers fill stroke"
           inkscape:export-filename="C:\Users\huszty\g967-7-0-3.png"
           inkscape:export-xdpi="199"
           inkscape:export-ydpi="199">
          <path
             inkscape:connector-curvature="0"
             id="path1027-1-3-5-06-7-5-3-3"
             d="m 160.49188,157.95867 -0.003,13.35225"
             style="fill:#000000;fill-opacity:0.58823529;fill-rule:nonzero;stroke:#000095;stroke-width:2;stroke-linecap:butt;stroke-linejoin:miter;stroke-miterlimit:4;stroke-dasharray:none;stroke-opacity:1;paint-order:markers fill stroke"
             sodipodi:nodetypes="cc" />
          <circle
             r="3.1307073"
             cy="154.77435"
             cx="160.68088"
             id="path1029-15-9-8-2-9-4-7-22"
             style="opacity:1;fill:#5a5a5a;fill-opacity:1;fill-rule:nonzero;stroke:#000095;stroke-width:2;stroke-linecap:round;stroke-linejoin:bevel;stroke-miterlimit:4;stroke-dasharray:none;stroke-opacity:1;paint-order:markers fill stroke" />
        </g>
        <g
           transform="rotate(-154.26,303.66717,185.59936)"
           id="g967-7-0-6-4-8-1-9-3"
           style="fill:#000000;fill-opacity:0.47058824;fill-rule:nonzero;stroke:#000095;stroke-width:2;stroke-miterlimit:4;stroke-dasharray:none;stroke-opacity:1;paint-order:markers fill stroke"
           inkscape:export-filename="C:\Users\huszty\g967-7-0-3.png"
           inkscape:export-xdpi="199"
           inkscape:export-ydpi="199">
          <path
             inkscape:connector-curvature="0"
             id="path1027-1-3-5-0-2-3-2-4-7"
             d="m 160.49188,157.95867 -0.003,13.35225"
             style="fill:#000000;fill-opacity:0.47058824;fill-rule:nonzero;stroke:#000095;stroke-width:2;stroke-linecap:butt;stroke-linejoin:miter;stroke-miterlimit:4;stroke-dasharray:none;stroke-opacity:1;paint-order:markers fill stroke"
             sodipodi:nodetypes="cc" />
          <circle
             r="3.1307073"
             cy="154.77435"
             cx="160.68088"
             id="path1029-15-9-8-8-6-1-3-4-0"
             style="opacity:1;fill:#787878;fill-opacity:1;fill-rule:nonzero;stroke:#000095;stroke-width:2;stroke-linecap:round;stroke-linejoin:bevel;stroke-miterlimit:4;stroke-dasharray:none;stroke-opacity:1;paint-order:markers fill stroke" />
        </g>
        <g
           transform="rotate(154.32,290.65372,247.97896)"
           id="g967-7-0-4-9-5-1-6-6"
           style="fill:#000000;fill-opacity:0.35294118;fill-rule:nonzero;stroke:#000095;stroke-width:2;stroke-miterlimit:4;stroke-dasharray:none;stroke-opacity:1;paint-order:markers fill stroke"
           inkscape:export-filename="C:\Users\huszty\g967-7-0-3.png"
           inkscape:export-xdpi="199"
           inkscape:export-ydpi="199">
          <path
             inkscape:connector-curvature="0"
             id="path1027-1-3-5-8-9-0-4-6-7"
             d="m 160.49188,157.95867 -0.002,13.35224"
             style="fill:#000000;fill-opacity:0.35294118;fill-rule:nonzero;stroke:#000095;stroke-width:2;stroke-linecap:butt;stroke-linejoin:miter;stroke-miterlimit:4;stroke-dasharray:none;stroke-opacity:1;paint-order:markers fill stroke"
             sodipodi:nodetypes="cc" />
          <circle
             r="3.1307073"
             cy="154.77435"
             cx="160.68088"
             id="path1029-15-9-8-81-7-0-0-3-6"
             style="opacity:1;fill:#969696;fill-opacity:1;fill-rule:nonzero;stroke:#000095;stroke-width:2;stroke-linecap:round;stroke-linejoin:bevel;stroke-miterlimit:4;stroke-dasharray:none;stroke-opacity:1;paint-order:markers fill stroke" />
        </g>
        <g
           transform="rotate(102.9,274.43154,325.73624)"
           id="g967-7-0-2-8-7-7-6-0"
           style="fill:#000000;fill-opacity:0.23529412;fill-rule:nonzero;stroke:#000095;stroke-width:2;stroke-miterlimit:4;stroke-dasharray:none;stroke-opacity:1;paint-order:markers fill stroke"
           inkscape:export-filename="C:\Users\huszty\g967-7-0-3.png"
           inkscape:export-xdpi="199"
           inkscape:export-ydpi="199">
          <path
             inkscape:connector-curvature="0"
             id="path1027-1-3-5-9-0-3-2-5-1"
             d="m 160.49188,157.95867 -0.002,13.35227"
             style="fill:#000000;fill-opacity:0.23529412;fill-rule:nonzero;stroke:#000095;stroke-width:2;stroke-linecap:butt;stroke-linejoin:miter;stroke-miterlimit:4;stroke-dasharray:none;stroke-opacity:1;paint-order:markers fill stroke"
             sodipodi:nodetypes="cc" />
          <circle
             r="3.1307073"
             cy="154.77435"
             cx="160.68088"
             id="path1029-15-9-8-9-0-0-8-5-0"
             style="opacity:1;fill:#b4b4b4;fill-opacity:1;fill-rule:nonzero;stroke:#000095;stroke-width:2;stroke-linecap:round;stroke-linejoin:bevel;stroke-miterlimit:4;stroke-dasharray:none;stroke-opacity:1;paint-order:markers fill stroke" />
        </g>
        <g
           transform="rotate(51.479999,238.01008,500.30205)"
           id="g967-7-0-3-3-6-7-1-1"
           style="fill:#000000;fill-opacity:0.11764706;fill-rule:nonzero;stroke:#000095;stroke-width:2;stroke-miterlimit:4;stroke-dasharray:none;stroke-opacity:1;paint-order:markers fill stroke"
           inkscape:export-filename="C:\Users\huszty\g967-7-0-3.png"
           inkscape:export-xdpi="199"
           inkscape:export-ydpi="199">
          <path
             inkscape:connector-curvature="0"
             id="path1027-1-3-5-84-4-1-1-5-8"
             d="m 160.49188,157.95867 -0.001,13.35226"
             style="fill:#000000;fill-opacity:0.11764706;fill-rule:nonzero;stroke:#000095;stroke-width:2;stroke-linecap:butt;stroke-linejoin:miter;stroke-miterlimit:4;stroke-dasharray:none;stroke-opacity:1;paint-order:markers fill stroke"
             sodipodi:nodetypes="cc" />
          <circle
             r="3.1307073"
             cy="154.77435"
             cx="160.68088"
             id="path1029-15-9-8-4-4-2-7-9-7"
             style="opacity:1;fill:#d2d2d2;fill-opacity:1;fill-rule:nonzero;stroke:#000095;stroke-width:2;stroke-linecap:round;stroke-linejoin:bevel;stroke-miterlimit:4;stroke-dasharray:none;stroke-opacity:1;paint-order:markers fill stroke" />
        </g>
      </g>
    </g>
  </g>
</svg>
